<?xml version="1.0" encoding="UTF-8"?>
<svg id="Capa_1" xmlns="http://www.w3.org/2000/svg" version="1.1" viewBox="0 0 1889.5 386.59">
  <defs>
    <style>
      .st0 { fill: #2d4b93; }
      .st1 { fill: #198bcc; }
      .st2 { fill: #3c68a9; }
      .st3 { fill: #198ccc; }
      .st4 { fill: #2186c7; }
      .st5 { fill: #32549a; }
      .st6 { fill: #27408a; }
      .st7 { fill: #4170b1; }
      .st8 { fill: #35599e; }
      .st9 { fill: #406fb0; }
      .st10 { fill: #0499da; }
      .st11 { fill: #3678b9; }
      .st12 { fill: #317cbc; }
      .st13 { fill: #2a448d; }
      .st14 { fill: #365da1; }
      .st15 { fill: #305197; }
      .st16 { fill: #3961a4; }
      .st17 { fill: #315399; }
      .st18 { fill: #2e4d94; }
      .st19 { fill: #223681; }
      .st20 { fill: #375da1; }
      .st21 { fill: #1d89c9; }
      .st22 { fill: #3f6dae; }
      .st23 { fill: #28418a; }
      .st24 { fill: #305198; }
      .st25 { fill: #385fa3; }
      .st26 { fill: #33569c; }
      .st27 { fill: #2c4a92; }
      .st28 { fill: #0d94d4; }
      .st29 { fill: #32559b; }
      .st30 { fill: #2286c6; }
      .st31 { fill: #1c89ca; }
      .st32 { fill: #2b7fc0; }
      .st33 { fill: #2a468e; }
      .st34 { fill: #3c74b4; }
      .st35 { fill: #0599da; }
      .st36 { fill: #1e88c9; }
      .st37 { fill: #307cbc; }
      .st38 { fill: #3479ba; }
      .st39 { fill: #2a458d; }
      .st40 { fill: #253c86; }
      .st41 { fill: #33559b; }
      .st42 { fill: #3a64a7; }
      .st43 { fill: #34599d; }
      .st44 { fill: #2c4890; }
      .st45 { fill: #2b80c0; }
      .st46 { fill: #3d6aab; }
      .st47 { fill: #2a80c0; }
      .st48 { fill: #0a95d6; }
      .st49 { fill: #039adb; }
      .st50 { fill: #3e6cad; }
      .st51 { fill: #2b4890; }
      .st52 { fill: #263e88; }
      .st53 { fill: #28428b; }
      .st54 { fill: #2782c2; }
      .st55 { fill: #0798d8; }
      .st56 { fill: #2d7ebe; }
      .st57 { fill: #3777b8; }
      .st58 { fill: #2b478f; }
      .st59 { fill: #2d4a92; }
      .st60 { fill: #0d93d4; }
      .st61 { fill: #2d4c93; }
      .st62 { fill: #0698d9; }
      .st63 { fill: #0a96d6; }
      .st64 { fill: #223581; }
      .st65 { fill: #2882c2; }
      .st66 { fill: #263d87; }
      .st67 { fill: #4171b1; }
      .st68 { fill: #305096; }
      .st69 { fill: #2484c5; }
      .st70 { fill: #337aba; }
      .st71 { fill: #3860a4; }
      .st72 { fill: #3f6cad; }
      .st73 { fill: #168dce; }
      .st74 { fill: #253b86; }
      .st75 { fill: #3d6aac; }
      .st76 { fill: #375fa2; }
      .st77 { fill: #2583c4; }
      .st78 { fill: #365ba0; }
      .st79 { fill: #2b4790; }
      .st80 { fill: #3f72b2; }
      .st81 { fill: #327bbb; }
      .st82 { fill: #213580; }
      .st83 { fill: #0797d8; }
      .st84 { fill: #3d69ab; }
      .st85 { fill: #32559a; }
      .st86 { fill: #3a65a7; }
      .st87 { fill: #2087c8; }
      .st88 { fill: #3a76b6; }
      .st89 { fill: #1191d1; }
      .st90 { fill: #1290d1; }
      .st91 { fill: #3861a4; }
      .st92 { fill: #3c74b5; }
      .st93 { fill: #355a9e; }
      .st94 { fill: #3b75b5; }
      .st95 { fill: #138fd0; }
      .st96 { fill: #0c94d5; }
      .st97 { fill: #375ea1; }
      .st98 { fill: #2385c6; }
      .st99 { fill: #3a63a6; }
      .st100 { fill: #029bdc; }
      .st101 { fill: #2f4f96; }
      .st102 { fill: #1a8bcb; }
      .st103 { fill: #3f6eae; }
      .st104 { fill: #3976b6; }
      .st105 { fill: #253c87; }
      .st106 { fill: #3d74b4; }
      .st107 { fill: #1b8aca; }
      .st108 { fill: #2b468f; }
      .st109 { fill: #2d4b92; }
      .st110 { fill: #223782; }
      .st111 { fill: #019bdc; }
      .st112 { fill: #365ca0; }
      .st113 { fill: #233783; }
      .st114 { fill: #2e7dbe; }
      .st115 { fill: #148fcf; }
      .st116 { fill: #2c7fbf; }
      .st117 { fill: #3e6bac; }
      .st118 { fill: #178dce; }
      .st119 { fill: #2e4c93; }
      .st120 { fill: #2981c1; }
      .st121 { fill: #1190d1; }
      .st122 { fill: #1f87c8; }
      .st123 { fill: #4070b0; }
      .st124 { fill: #243984; }
      .st125 { fill: #29438c; }
      .st126 { fill: #406faf; }
      .st127 { fill: #0e93d3; }
      .st128 { fill: #3c68aa; }
      .st129 { fill: #158ecf; }
      .st130 { fill: #4071b1; }
      .st131 { fill: #1091d2; }
      .st132 { fill: #4170b0; }
      .st133 { fill: #2782c3; }
      .st134 { fill: #28418b; }
      .st135 { fill: #1f88c8; }
      .st136 { fill: #1c8aca; }
      .st137 { fill: #3a75b6; }
      .st138 { fill: #0897d8; }
      .st139 { fill: #2186c6; }
      .st140 { fill: #188ccd; }
      .st141 { fill: #1092d2; }
      .st142 { fill: #33579c; }
      .st143 { fill: #2881c2; }
      .st144 { fill: #33569b; }
      .st145 { fill: #325499; }
      .st146 { fill: #223682; }
      .st147 { fill: #3778b8; }
      .st148 { fill: #233883; }
      .st149 { fill: #243a85; }
      .st150 { fill: #3d73b3; }
      .st151 { fill: #3977b7; }
      .st152 { fill: #34589d; }
      .st153 { fill: #307cbd; }
      .st154 { fill: #2f5096; }
      .st155 { fill: #1e88c8; }
      .st156 { fill: #34599e; }
      .st157 { fill: #375ea2; }
      .st158 { fill: #2683c4; }
      .st159 { fill: #2f4e95; }
      .st160 { fill: #2a80c1; }
      .st161 { fill: #347aba; }
      .st162 { fill: #3b65a7; }
      .st163 { fill: #049adb; }
      .st164 { fill: #355b9f; }
      .st165 { fill: #307dbd; }
      .st166 { fill: #274089; }
      .st167 { fill: #3a64a6; }
      .st168 { fill: #168ece; }
      .st169 { fill: #0b95d5; }
      .st170 { fill: #263d88; }
      .st171 { fill: #1a8bcc; }
      .st172 { fill: #0599d9; }
      .st173 { fill: #253b85; }
      .st174 { fill: #2e7ebe; }
      .st175 { fill: #2087c7; }
      .st176 { fill: #3c67a9; }
      .st177 { fill: #305097; }
      .st178 { fill: #28408a; }
      .st179 { fill: #365b9f; }
      .st180 { fill: #337abb; }
      .st181 { fill: #233782; }
      .st182 { fill: #3c75b5; }
      .st183 { fill: #3b65a8; }
      .st184 { fill: #2584c4; }
      .st185 { fill: #3860a3; }
      .st186 { fill: #3d69aa; }
      .st187 { fill: #2385c5; }
      .st188 { fill: #2683c3; }
      .st189 { fill: #0e93d4; }
      .st190 { fill: #3f72b3; }
      .st191 { fill: #1191d2; }
      .st192 { fill: #2f4f95; }
      .st193 { fill: #233984; }
      .st194 { fill: #406eaf; }
      .st195 { fill: #2a458e; }
      .st196 { fill: #317bbc; }
      .st197 { fill: #4072b2; }
      .st198 { fill: #2484c4; }
      .st199 { fill: #315298; }
      .st200 { fill: #3f6eaf; }
      .st201 { fill: #029bdb; }
      .st202 { fill: #0b95d6; }
      .st203 { fill: #0598d9; }
      .st204 { fill: #2285c6; }
      .st205 { fill: #019cdd; }
      .st206 { fill: #2c4a91; }
      .st207 { fill: #0f92d3; }
      .st208 { fill: #1b8acb; }
      .st209 { fill: #273f89; }
      .st210 { fill: #148fd0; }
      .st211 { fill: #178dcd; }
      .st212 { fill: #0996d7; }
      .st213 { fill: #1390d0; }
      .st214 { fill: #3962a5; }
      .st215 { fill: #213480; }
      .st216 { fill: #3e73b3; }
      .st217 { fill: #2c4991; }
      .st218 { fill: #2f7dbd; }
      .st219 { fill: #3579b9; }
      .st220 { fill: #3b66a8; }
      .st221 { fill: #2d7ebf; }
      .st222 { fill: #29448d; }
      .st223 { fill: #355a9f; }
      .st224 { fill: #2e4c94; }
      .st225 { fill: #213581; }
      .st226 { fill: #0896d7; }
      .st227 { fill: #3678b8; }
      .st228 { fill: #3877b7; }
      .st229 { fill: #1d89ca; }
      .st230 { fill: #009cdd; }
    </style>
  </defs>
  <g>
    <path class="st215" d="M586.87,277.82l88.38-197.16c4.76-10.54,13.26-17,25.16-17h2.04c11.9,0,20.06,6.46,24.82,17l88.38,197.16c1.7,3.06,2.38,6.12,2.38,8.84,0,11.22-8.5,20.06-19.72,20.06-9.86,0-16.66-5.78-20.4-14.62l-19.38-44.53h-115.58l-20.06,45.89c-3.4,8.5-10.54,13.26-19.38,13.26-10.88,0-19.38-8.5-19.38-19.38,0-3.06,1.02-6.12,2.72-9.52ZM742.56,210.51l-41.81-96.2-41.81,96.2h83.62Z"/>
    <path class="st215" d="M880.24,86.09c0-11.56,9.18-20.74,21.08-20.74s20.74,9.18,20.74,20.74v180.85h107.76c10.54,0,19.04,8.5,19.04,19.04s-8.5,19.04-19.04,19.04h-128.5c-11.9,0-21.08-9.18-21.08-21.08V86.09Z"/>
    <path class="st215" d="M1110.03,86.09c0-11.56,9.18-20.74,21.08-20.74s20.74,9.18,20.74,20.74v199.88c0,11.56-9.18,20.74-20.74,20.74s-21.08-9.18-21.08-20.74V86.09Z"/>
    <path class="st215" d="M1226.28,278.5c-4.76-3.4-8.16-9.18-8.16-15.98,0-10.88,8.84-19.38,19.72-19.38,5.78,0,9.52,1.7,12.24,3.74,19.72,15.64,40.79,24.48,66.63,24.48s42.15-12.24,42.15-29.92v-.68c0-17-9.52-26.17-53.71-36.37-50.65-12.24-79.2-27.19-79.2-71.05v-.68c0-40.79,33.99-69.01,81.24-69.01,29.91,0,54.05,7.82,75.47,22.1,4.76,2.72,9.18,8.5,9.18,16.66,0,10.88-8.84,19.38-19.72,19.38-4.08,0-7.48-1.02-10.88-3.06-18.36-11.9-36.03-18.02-54.73-18.02-24.48,0-38.75,12.58-38.75,28.21v.68c0,18.36,10.88,26.52,56.77,37.39,50.31,12.24,76.15,30.25,76.15,69.69v.68c0,44.53-35.01,71.05-84.98,71.05-32.29,0-62.89-10.2-89.4-29.91Z"/>
    <path class="st215" d="M1520.32,105.81h-57.79c-10.88,0-19.38-8.84-19.38-19.38s8.5-19.38,19.38-19.38h158.07c10.54,0,19.04,8.84,19.04,19.38s-8.5,19.38-19.04,19.38h-58.13v180.17c0,11.56-9.52,20.74-21.08,20.74s-21.08-9.18-21.08-20.74V105.81Z"/>
    <path class="st215" d="M1658.34,277.82l88.38-197.16c4.76-10.54,13.26-17,25.16-17h2.04c11.9,0,20.06,6.46,24.81,17l88.38,197.16c1.7,3.06,2.38,6.12,2.38,8.84,0,11.22-8.5,20.06-19.72,20.06-9.86,0-16.66-5.78-20.4-14.62l-19.38-44.53h-115.58l-20.06,45.89c-3.4,8.5-10.54,13.26-19.38,13.26-10.88,0-19.38-8.5-19.38-19.38,0-3.06,1.02-6.12,2.72-9.52ZM1814.03,210.51l-41.81-96.2-41.81,96.2h83.62Z"/>
  </g>
  <g>
    <circle class="st215" cx="377.52" cy="315.52" r="71.06"/>
    <circle class="st215" cx="376.76" cy="314.31" r="71.06"/>
    <circle class="st82" cx="376" cy="313.09" r="71.06"/>
    <circle class="st225" cx="375.23" cy="311.88" r="71.06"/>
    <circle class="st64" cx="374.47" cy="310.66" r="71.06"/>
    <circle class="st19" cx="373.71" cy="309.44" r="71.06"/>
    <circle class="st19" cx="372.95" cy="308.23" r="71.06"/>
    <circle class="st146" cx="372.19" cy="307.01" r="71.06"/>
    <circle class="st146" cx="371.42" cy="305.79" r="71.06"/>
    <circle class="st110" cx="370.66" cy="304.58" r="71.06"/>
    <circle class="st181" cx="369.9" cy="303.36" r="71.06"/>
    <circle class="st113" cx="369.14" cy="302.15" r="71.06"/>
    <circle class="st148" cx="368.37" cy="300.93" r="71.06"/>
    <circle class="st148" cx="367.61" cy="299.71" r="71.06"/>
    <circle class="st148" cx="366.85" cy="298.5" r="71.06"/>
    <circle class="st193" cx="366.09" cy="297.28" r="71.06"/>
    <circle class="st124" cx="365.32" cy="296.06" r="71.06"/>
    <circle class="st124" cx="364.56" cy="294.85" r="71.06"/>
    <circle class="st124" cx="363.8" cy="293.63" r="71.06"/>
    <circle class="st149" cx="363.04" cy="292.42" r="71.06"/>
    <circle class="st149" cx="362.28" cy="291.2" r="71.06"/>
    <circle class="st149" cx="361.51" cy="289.98" r="71.06"/>
    <circle class="st173" cx="360.75" cy="288.77" r="71.06"/>
    <circle class="st74" cx="359.99" cy="287.55" r="71.06"/>
    <circle class="st74" cx="359.23" cy="286.33" r="71.06"/>
    <circle class="st40" cx="358.46" cy="285.12" r="71.06"/>
    <circle class="st40" cx="357.7" cy="283.9" r="71.06"/>
    <circle class="st105" cx="356.94" cy="282.69" r="71.06"/>
    <circle class="st105" cx="356.18" cy="281.47" r="71.06"/>
    <circle class="st66" cx="355.41" cy="280.25" r="71.06"/>
    <circle class="st66" cx="354.65" cy="279.04" r="71.06"/>
    <circle class="st170" cx="353.89" cy="277.82" r="71.06"/>
    <circle class="st52" cx="353.13" cy="276.6" r="71.06"/>
    <circle class="st52" cx="352.36" cy="275.39" r="71.06"/>
    <circle class="st52" cx="351.6" cy="274.17" r="71.06"/>
    <circle class="st209" cx="350.84" cy="272.96" r="71.06"/>
    <circle class="st209" cx="350.08" cy="271.74" r="71.06"/>
    <circle class="st209" cx="349.32" cy="270.52" r="71.06"/>
    <circle class="st166" cx="348.55" cy="269.31" r="71.06"/>
    <circle class="st6" cx="347.79" cy="268.09" r="71.06"/>
    <circle class="st6" cx="347.03" cy="266.87" r="71.06"/>
    <circle class="st178" cx="346.27" cy="265.66" r="71.06"/>
    <circle class="st23" cx="345.5" cy="264.44" r="71.06"/>
    <circle class="st23" cx="344.74" cy="263.23" r="71.06"/>
    <circle class="st134" cx="343.98" cy="262.01" r="71.06"/>
    <circle class="st53" cx="343.22" cy="260.79" r="71.06"/>
    <circle class="st53" cx="342.45" cy="259.58" r="71.06"/>
    <circle class="st53" cx="341.69" cy="258.36" r="71.06"/>
    <circle class="st125" cx="340.93" cy="257.15" r="71.06"/>
    <circle class="st125" cx="340.17" cy="255.93" r="71.06"/>
    <circle class="st125" cx="339.4" cy="254.71" r="71.06"/>
    <circle class="st125" cx="338.64" cy="253.5" r="71.06"/>
    <circle class="st222" cx="337.88" cy="252.28" r="71.06"/>
    <circle class="st222" cx="337.12" cy="251.06" r="71.06"/>
    <circle class="st13" cx="336.36" cy="249.85" r="71.06"/>
    <circle class="st39" cx="335.59" cy="248.63" r="71.06"/>
    <circle class="st195" cx="334.83" cy="247.42" r="71.06"/>
    <circle class="st195" cx="334.07" cy="246.2" r="71.06"/>
    <circle class="st33" cx="333.31" cy="244.98" r="71.06"/>
    <circle class="st33" cx="332.54" cy="243.77" r="71.06"/>
    <circle class="st108" cx="331.78" cy="242.55" r="71.06"/>
    <circle class="st58" cx="331.02" cy="241.33" r="71.06"/>
    <circle class="st58" cx="330.26" cy="240.12" r="71.06"/>
    <circle class="st58" cx="329.49" cy="238.9" r="71.06"/>
    <circle class="st79" cx="328.73" cy="237.69" r="71.06"/>
    <circle class="st51" cx="327.97" cy="236.47" r="71.06"/>
    <circle class="st44" cx="327.21" cy="235.25" r="71.06"/>
    <circle class="st44" cx="326.45" cy="234.04" r="71.06"/>
    <circle class="st217" cx="325.68" cy="232.82" r="71.06"/>
    <circle class="st217" cx="324.92" cy="231.6" r="71.06"/>
    <circle class="st217" cx="324.16" cy="230.39" r="71.06"/>
    <circle class="st206" cx="323.4" cy="229.17" r="71.06"/>
    <circle class="st27" cx="322.63" cy="227.96" r="71.06"/>
    <circle class="st59" cx="321.87" cy="226.74" r="71.06"/>
    <circle class="st59" cx="321.11" cy="225.52" r="71.06"/>
    <circle class="st109" cx="320.35" cy="224.31" r="71.06"/>
    <circle class="st0" cx="319.58" cy="223.09" r="71.06"/>
    <circle class="st0" cx="318.82" cy="221.87" r="71.06"/>
    <circle class="st61" cx="318.06" cy="220.66" r="71.06"/>
    <circle class="st119" cx="317.3" cy="219.44" r="71.06"/>
    <circle class="st224" cx="316.53" cy="218.23" r="71.06"/>
    <circle class="st18" cx="315.77" cy="217.01" r="71.06"/>
    <circle class="st18" cx="315.01" cy="215.79" r="71.06"/>
    <circle class="st18" cx="314.25" cy="214.58" r="71.06"/>
    <circle class="st18" cx="313.49" cy="213.36" r="71.06"/>
    <circle class="st159" cx="312.72" cy="212.14" r="71.06"/>
    <circle class="st159" cx="311.96" cy="210.93" r="71.06"/>
    <circle class="st159" cx="311.2" cy="209.71" r="71.06"/>
    <circle class="st192" cx="310.44" cy="208.5" r="71.06"/>
    <circle class="st101" cx="309.67" cy="207.28" r="71.06"/>
    <circle class="st101" cx="308.91" cy="206.06" r="71.06"/>
    <circle class="st154" cx="308.15" cy="204.85" r="71.06"/>
    <circle class="st68" cx="307.39" cy="203.63" r="71.06"/>
    <circle class="st177" cx="306.62" cy="202.41" r="71.06"/>
    <circle class="st15" cx="305.86" cy="201.2" r="71.06"/>
    <circle class="st15" cx="305.1" cy="199.98" r="71.06"/>
    <circle class="st15" cx="304.34" cy="198.77" r="71.06"/>
    <circle class="st24" cx="303.57" cy="197.55" r="71.06"/>
    <circle class="st199" cx="302.81" cy="196.33" r="71.06"/>
    <circle class="st199" cx="302.05" cy="195.12" r="71.06"/>
    <circle class="st199" cx="301.29" cy="193.9" r="71.06"/>
    <circle class="st17" cx="300.53" cy="192.68" r="71.06"/>
    <circle class="st17" cx="299.76" cy="191.47" r="71.06"/>
    <circle class="st17" cx="299" cy="190.25" r="71.06"/>
    <circle class="st145" cx="298.24" cy="189.04" r="71.06"/>
    <circle class="st5" cx="297.48" cy="187.82" r="71.06"/>
    <circle class="st5" cx="296.71" cy="186.6" r="71.06"/>
    <circle class="st5" cx="295.95" cy="185.39" r="71.06"/>
    <circle class="st85" cx="295.19" cy="184.17" r="71.06"/>
    <circle class="st29" cx="294.43" cy="182.95" r="71.06"/>
    <circle class="st41" cx="293.66" cy="181.74" r="71.06"/>
    <circle class="st144" cx="292.9" cy="180.52" r="71.06"/>
    <circle class="st144" cx="292.14" cy="179.31" r="71.06"/>
    <circle class="st26" cx="291.38" cy="178.09" r="71.06"/>
    <circle class="st142" cx="290.62" cy="176.87" r="71.06"/>
    <circle class="st142" cx="289.85" cy="175.66" r="71.06"/>
    <circle class="st142" cx="289.09" cy="174.44" r="71.06"/>
    <circle class="st152" cx="288.33" cy="173.23" r="71.06"/>
    <circle class="st152" cx="287.57" cy="172.01" r="71.06"/>
    <circle class="st152" cx="286.8" cy="170.79" r="71.06"/>
    <circle class="st152" cx="286.04" cy="169.58" r="71.06"/>
    <circle class="st43" cx="285.28" cy="168.36" r="71.06"/>
    <circle class="st156" cx="284.52" cy="167.14" r="71.06"/>
    <circle class="st8" cx="283.75" cy="165.93" r="71.06"/>
    <circle class="st93" cx="282.99" cy="164.71" r="71.06"/>
    <circle class="st93" cx="282.23" cy="163.5" r="71.06"/>
    <circle class="st223" cx="281.47" cy="162.28" r="71.06"/>
    <circle class="st164" cx="280.7" cy="161.06" r="71.06"/>
    <circle class="st164" cx="279.94" cy="159.85" r="71.06"/>
    <circle class="st179" cx="279.18" cy="158.63" r="71.06"/>
    <circle class="st78" cx="278.42" cy="157.41" r="71.06"/>
    <circle class="st112" cx="277.66" cy="156.2" r="71.06"/>
    <circle class="st112" cx="276.89" cy="154.98" r="71.06"/>
    <circle class="st112" cx="276.13" cy="153.77" r="71.06"/>
    <circle class="st14" cx="275.37" cy="152.55" r="71.06"/>
    <circle class="st14" cx="274.61" cy="151.33" r="71.06"/>
    <circle class="st20" cx="273.84" cy="150.12" r="71.06"/>
    <circle class="st97" cx="273.08" cy="148.9" r="71.06"/>
    <circle class="st157" cx="272.32" cy="147.68" r="71.06"/>
    <circle class="st157" cx="271.56" cy="146.47" r="71.06"/>
    <circle class="st157" cx="270.79" cy="145.25" r="71.06"/>
    <circle class="st76" cx="270.03" cy="144.04" r="71.06"/>
    <circle class="st25" cx="269.27" cy="142.82" r="71.06"/>
    <circle class="st25" cx="268.51" cy="141.6" r="71.06"/>
    <circle class="st185" cx="267.75" cy="140.39" r="71.06"/>
    <circle class="st185" cx="266.98" cy="139.17" r="71.06"/>
    <circle class="st71" cx="266.22" cy="137.95" r="71.06"/>
    <circle class="st91" cx="265.46" cy="136.74" r="71.06"/>
    <circle class="st16" cx="264.7" cy="135.52" r="71.06"/>
    <circle class="st16" cx="263.93" cy="134.31" r="71.06"/>
    <circle class="st214" cx="263.17" cy="133.09" r="71.06"/>
    <circle class="st214" cx="262.41" cy="131.87" r="71.06"/>
    <circle class="st214" cx="261.65" cy="130.66" r="71.06"/>
    <circle class="st214" cx="260.88" cy="129.44" r="71.06"/>
    <circle class="st99" cx="260.12" cy="128.22" r="71.06"/>
    <circle class="st99" cx="259.36" cy="127.01" r="71.06"/>
    <circle class="st99" cx="258.6" cy="125.79" r="71.06"/>
    <circle class="st167" cx="257.83" cy="124.58" r="71.06"/>
    <circle class="st42" cx="257.07" cy="123.36" r="71.06"/>
    <circle class="st42" cx="256.31" cy="122.14" r="71.06"/>
    <circle class="st86" cx="255.55" cy="120.93" r="71.06"/>
    <circle class="st162" cx="254.79" cy="119.71" r="71.06"/>
    <circle class="st162" cx="254.02" cy="118.49" r="71.06"/>
    <circle class="st183" cx="253.26" cy="117.28" r="71.06"/>
    <circle class="st220" cx="252.5" cy="116.06" r="71.06"/>
    <circle class="st220" cx="251.74" cy="114.85" r="71.06"/>
    <circle class="st220" cx="250.97" cy="113.63" r="71.06"/>
    <circle class="st176" cx="250.21" cy="112.41" r="71.06"/>
    <circle class="st176" cx="249.45" cy="111.2" r="71.06"/>
    <circle class="st176" cx="248.69" cy="109.98" r="71.06"/>
    <circle class="st2" cx="247.92" cy="108.76" r="71.06"/>
    <circle class="st128" cx="247.16" cy="107.55" r="71.06"/>
    <circle class="st128" cx="246.4" cy="106.33" r="71.06"/>
    <circle class="st186" cx="245.64" cy="105.12" r="71.06"/>
    <circle class="st186" cx="244.87" cy="103.9" r="71.06"/>
    <circle class="st84" cx="244.11" cy="102.68" r="71.06"/>
    <circle class="st84" cx="243.35" cy="101.47" r="71.06"/>
    <circle class="st46" cx="242.59" cy="100.25" r="71.06"/>
    <circle class="st46" cx="241.83" cy="99.03" r="71.06"/>
    <circle class="st75" cx="241.06" cy="97.82" r="71.06"/>
    <circle class="st117" cx="240.3" cy="96.6" r="71.06"/>
    <circle class="st117" cx="239.54" cy="95.39" r="71.06"/>
    <circle class="st117" cx="238.78" cy="94.17" r="71.06"/>
    <circle class="st50" cx="238.01" cy="92.95" r="71.06"/>
    <circle class="st50" cx="237.25" cy="91.74" r="71.06"/>
    <circle class="st50" cx="236.49" cy="90.52" r="71.06"/>
    <circle class="st72" cx="235.73" cy="89.31" r="71.06"/>
    <circle class="st22" cx="234.96" cy="88.09" r="71.06"/>
    <circle class="st22" cx="234.2" cy="86.87" r="71.06"/>
    <circle class="st22" cx="233.44" cy="85.66" r="71.06"/>
    <circle class="st103" cx="232.68" cy="84.44" r="71.06"/>
    <circle class="st200" cx="231.92" cy="83.22" r="71.06"/>
    <circle class="st194" cx="231.15" cy="82.01" r="71.06"/>
    <circle class="st126" cx="230.39" cy="80.79" r="71.06"/>
    <circle class="st126" cx="229.63" cy="79.58" r="71.06"/>
    <circle class="st9" cx="228.87" cy="78.36" r="71.06"/>
    <circle class="st9" cx="228.1" cy="77.14" r="71.06"/>
    <circle class="st123" cx="227.34" cy="75.93" r="71.06"/>
    <circle class="st132" cx="226.58" cy="74.71" r="71.06"/>
    <circle class="st7" cx="225.82" cy="73.49" r="71.06"/>
    <circle class="st67" cx="225.05" cy="72.28" r="71.06"/>
    <circle class="st67" cx="224.29" cy="71.06" r="71.06"/>
    <circle class="st67" cx="223.53" cy="72.28" r="71.06"/>
    <circle class="st130" cx="222.77" cy="73.49" r="71.06"/>
    <circle class="st197" cx="222" cy="74.71" r="71.06"/>
    <circle class="st197" cx="221.24" cy="75.93" r="71.06"/>
    <circle class="st80" cx="220.48" cy="77.14" r="71.06"/>
    <circle class="st80" cx="219.72" cy="78.36" r="71.06"/>
    <circle class="st190" cx="218.96" cy="79.58" r="71.06"/>
    <circle class="st216" cx="218.19" cy="80.79" r="71.06"/>
    <circle class="st216" cx="217.43" cy="82.01" r="71.06"/>
    <circle class="st216" cx="216.67" cy="83.22" r="71.06"/>
    <circle class="st150" cx="215.91" cy="84.44" r="71.06"/>
    <circle class="st106" cx="215.14" cy="85.66" r="71.06"/>
    <circle class="st106" cx="214.38" cy="86.87" r="71.06"/>
    <circle class="st34" cx="213.62" cy="88.09" r="71.06"/>
    <circle class="st34" cx="212.86" cy="89.31" r="71.06"/>
    <circle class="st92" cx="212.09" cy="90.52" r="71.06"/>
    <circle class="st182" cx="211.33" cy="91.74" r="71.06"/>
    <circle class="st94" cx="210.57" cy="92.95" r="71.06"/>
    <circle class="st94" cx="209.81" cy="94.17" r="71.06"/>
    <circle class="st94" cx="209.04" cy="95.39" r="71.06"/>
    <circle class="st137" cx="208.28" cy="96.6" r="71.06"/>
    <circle class="st88" cx="207.52" cy="97.82" r="71.06"/>
    <circle class="st88" cx="206.76" cy="99.03" r="71.06"/>
    <circle class="st104" cx="206" cy="100.25" r="71.06"/>
    <circle class="st104" cx="205.23" cy="101.47" r="71.06"/>
    <circle class="st151" cx="204.47" cy="102.68" r="71.06"/>
    <circle class="st228" cx="203.71" cy="103.9" r="71.06"/>
    <circle class="st228" cx="202.95" cy="105.12" r="71.06"/>
    <circle class="st228" cx="202.18" cy="106.33" r="71.06"/>
    <circle class="st57" cx="201.42" cy="107.55" r="71.06"/>
    <circle class="st147" cx="200.66" cy="108.76" r="71.06"/>
    <circle class="st147" cx="199.9" cy="109.98" r="71.06"/>
    <circle class="st227" cx="199.13" cy="111.2" r="71.06"/>
    <circle class="st227" cx="198.37" cy="112.41" r="71.06"/>
    <circle class="st11" cx="197.61" cy="113.63" r="71.06"/>
    <circle class="st219" cx="196.85" cy="114.85" r="71.06"/>
    <circle class="st219" cx="196.09" cy="116.06" r="71.06"/>
    <circle class="st219" cx="195.32" cy="117.28" r="71.06"/>
    <circle class="st38" cx="194.56" cy="118.49" r="71.06"/>
    <circle class="st161" cx="193.8" cy="119.71" r="71.06"/>
    <circle class="st161" cx="193.04" cy="120.93" r="71.06"/>
    <circle class="st70" cx="192.27" cy="122.14" r="71.06"/>
    <circle class="st70" cx="191.51" cy="123.36" r="71.06"/>
    <circle class="st180" cx="190.75" cy="124.58" r="71.06"/>
    <circle class="st81" cx="189.99" cy="125.79" r="71.06"/>
    <circle class="st81" cx="189.22" cy="127.01" r="71.06"/>
    <circle class="st81" cx="188.46" cy="128.22" r="71.06"/>
    <circle class="st196" cx="187.7" cy="129.44" r="71.06"/>
    <circle class="st196" cx="186.94" cy="130.66" r="71.06"/>
    <circle class="st12" cx="186.17" cy="131.87" r="71.06"/>
    <circle class="st12" cx="185.41" cy="133.09" r="71.06"/>
    <circle class="st37" cx="184.65" cy="134.31" r="71.06"/>
    <circle class="st153" cx="183.89" cy="135.52" r="71.06"/>
    <circle class="st165" cx="183.13" cy="136.74" r="71.06"/>
    <circle class="st218" cx="182.36" cy="137.95" r="71.06"/>
    <circle class="st218" cx="181.6" cy="139.17" r="71.06"/>
    <circle class="st218" cx="180.84" cy="140.39" r="71.06"/>
    <circle class="st114" cx="180.08" cy="141.6" r="71.06"/>
    <circle class="st174" cx="179.31" cy="142.82" r="71.06"/>
    <circle class="st174" cx="178.55" cy="144.04" r="71.06"/>
    <circle class="st56" cx="177.79" cy="145.25" r="71.06"/>
    <circle class="st221" cx="177.03" cy="146.47" r="71.06"/>
    <circle class="st221" cx="176.26" cy="147.68" r="71.06"/>
    <circle class="st116" cx="175.5" cy="148.9" r="71.06"/>
    <circle class="st116" cx="174.74" cy="150.12" r="71.06"/>
    <circle class="st116" cx="173.98" cy="151.33" r="71.06"/>
    <circle class="st32" cx="173.22" cy="152.55" r="71.06"/>
    <circle class="st45" cx="172.45" cy="153.77" r="71.06"/>
    <circle class="st45" cx="171.69" cy="154.98" r="71.06"/>
    <circle class="st47" cx="170.93" cy="156.2" r="71.06"/>
    <circle class="st160" cx="170.17" cy="157.41" r="71.06"/>
    <circle class="st160" cx="169.4" cy="158.63" r="71.06"/>
    <circle class="st120" cx="168.64" cy="159.85" r="71.06"/>
    <circle class="st120" cx="167.88" cy="161.06" r="71.06"/>
    <circle class="st120" cx="167.12" cy="162.28" r="71.06"/>
    <circle class="st143" cx="166.35" cy="163.5" r="71.06"/>
    <circle class="st143" cx="165.59" cy="164.71" r="71.06"/>
    <circle class="st65" cx="164.83" cy="165.93" r="71.06"/>
    <circle class="st54" cx="164.07" cy="167.14" r="71.06"/>
    <circle class="st133" cx="163.3" cy="168.36" r="71.06"/>
    <circle class="st133" cx="162.54" cy="169.58" r="71.06"/>
    <circle class="st188" cx="161.78" cy="170.79" r="71.06"/>
    <circle class="st188" cx="161.02" cy="172.01" r="71.06"/>
    <circle class="st188" cx="160.26" cy="173.23" r="71.06"/>
    <circle class="st158" cx="159.49" cy="174.44" r="71.06"/>
    <circle class="st77" cx="158.73" cy="175.66" r="71.06"/>
    <circle class="st184" cx="157.97" cy="176.87" r="71.06"/>
    <circle class="st184" cx="157.21" cy="178.09" r="71.06"/>
    <circle class="st198" cx="156.44" cy="179.31" r="71.06"/>
    <circle class="st69" cx="155.68" cy="180.52" r="71.06"/>
    <circle class="st69" cx="154.92" cy="181.74" r="71.06"/>
    <circle class="st187" cx="154.16" cy="182.95" r="71.06"/>
    <circle class="st187" cx="153.39" cy="184.17" r="71.06"/>
    <circle class="st98" cx="152.63" cy="185.39" r="71.06"/>
    <circle class="st204" cx="151.87" cy="186.6" r="71.06"/>
    <circle class="st30" cx="151.11" cy="187.82" r="71.06"/>
    <circle class="st30" cx="150.34" cy="189.04" r="71.06"/>
    <circle class="st139" cx="149.58" cy="190.25" r="71.06"/>
    <circle class="st4" cx="148.82" cy="191.47" r="71.06"/>
    <circle class="st4" cx="148.06" cy="192.68" r="71.06"/>
    <circle class="st175" cx="147.3" cy="193.9" r="71.06"/>
    <circle class="st175" cx="146.53" cy="195.12" r="71.06"/>
    <circle class="st87" cx="145.77" cy="196.33" r="71.06"/>
    <circle class="st122" cx="145.01" cy="197.55" r="71.06"/>
    <circle class="st122" cx="144.25" cy="198.77" r="71.06"/>
    <circle class="st135" cx="143.48" cy="199.98" r="71.06"/>
    <circle class="st155" cx="142.72" cy="201.2" r="71.06"/>
    <circle class="st36" cx="141.96" cy="202.41" r="71.06"/>
    <circle class="st36" cx="141.2" cy="203.63" r="71.06"/>
    <circle class="st21" cx="140.43" cy="204.85" r="71.06"/>
    <circle class="st21" cx="139.67" cy="206.06" r="71.06"/>
    <circle class="st229" cx="138.91" cy="207.28" r="71.06"/>
    <circle class="st31" cx="138.15" cy="208.5" r="71.06"/>
    <circle class="st31" cx="137.39" cy="209.71" r="71.06"/>
    <circle class="st136" cx="136.62" cy="210.93" r="71.06"/>
    <circle class="st107" cx="135.86" cy="212.14" r="71.06"/>
    <circle class="st208" cx="135.1" cy="213.36" r="71.06"/>
    <circle class="st208" cx="134.34" cy="214.58" r="71.06"/>
    <circle class="st208" cx="133.57" cy="215.79" r="71.06"/>
    <circle class="st102" cx="132.81" cy="217.01" r="71.06"/>
    <circle class="st102" cx="132.05" cy="218.23" r="71.06"/>
    <circle class="st171" cx="131.29" cy="219.44" r="71.06"/>
    <circle class="st1" cx="130.52" cy="220.66" r="71.06"/>
    <circle class="st3" cx="129.76" cy="221.87" r="71.06"/>
    <circle class="st3" cx="129" cy="223.09" r="71.06"/>
    <circle class="st140" cx="128.24" cy="224.31" r="71.06"/>
    <circle class="st140" cx="127.47" cy="225.52" r="71.06"/>
    <circle class="st140" cx="126.71" cy="226.74" r="71.06"/>
    <circle class="st211" cx="125.95" cy="227.96" r="71.06"/>
    <circle class="st211" cx="125.19" cy="229.17" r="71.06"/>
    <circle class="st118" cx="124.43" cy="230.39" r="71.06"/>
    <circle class="st73" cx="123.66" cy="231.6" r="71.06"/>
    <circle class="st73" cx="122.9" cy="232.82" r="71.06"/>
    <circle class="st168" cx="122.14" cy="234.04" r="71.06"/>
    <circle class="st129" cx="121.38" cy="235.25" r="71.06"/>
    <circle class="st129" cx="120.61" cy="236.47" r="71.06"/>
    <circle class="st129" cx="119.85" cy="237.69" r="71.06"/>
    <circle class="st115" cx="119.09" cy="238.9" r="71.06"/>
    <circle class="st115" cx="118.33" cy="240.12" r="71.06"/>
    <circle class="st210" cx="117.56" cy="241.33" r="71.06"/>
    <circle class="st95" cx="116.8" cy="242.55" r="71.06"/>
    <circle class="st95" cx="116.04" cy="243.77" r="71.06"/>
    <circle class="st213" cx="115.28" cy="244.98" r="71.06"/>
    <circle class="st90" cx="114.51" cy="246.2" r="71.06"/>
    <circle class="st90" cx="113.75" cy="247.42" r="71.06"/>
    <circle class="st90" cx="112.99" cy="248.63" r="71.06"/>
    <circle class="st121" cx="112.23" cy="249.85" r="71.06"/>
    <circle class="st89" cx="111.47" cy="251.06" r="71.06"/>
    <circle class="st191" cx="110.7" cy="252.28" r="71.06"/>
    <circle class="st131" cx="109.94" cy="253.5" r="71.06"/>
    <circle class="st131" cx="109.18" cy="254.71" r="71.06"/>
    <circle class="st141" cx="108.42" cy="255.93" r="71.06"/>
    <circle class="st141" cx="107.65" cy="257.15" r="71.06"/>
    <circle class="st207" cx="106.89" cy="258.36" r="71.06"/>
    <circle class="st207" cx="106.13" cy="259.58" r="71.06"/>
    <circle class="st207" cx="105.37" cy="260.79" r="71.06"/>
    <circle class="st127" cx="104.6" cy="262.01" r="71.06"/>
    <circle class="st189" cx="103.84" cy="263.23" r="71.06"/>
    <circle class="st189" cx="103.08" cy="264.44" r="71.06"/>
    <circle class="st60" cx="102.32" cy="265.66" r="71.06"/>
    <circle class="st60" cx="101.56" cy="266.87" r="71.06"/>
    <circle class="st28" cx="100.79" cy="268.09" r="71.06"/>
    <circle class="st96" cx="100.03" cy="269.31" r="71.06"/>
    <circle class="st96" cx="99.27" cy="270.52" r="71.06"/>
    <circle class="st96" cx="98.51" cy="271.74" r="71.06"/>
    <circle class="st169" cx="97.74" cy="272.96" r="71.06"/>
    <circle class="st202" cx="96.98" cy="274.17" r="71.06"/>
    <circle class="st202" cx="96.22" cy="275.39" r="71.06"/>
    <circle class="st48" cx="95.46" cy="276.6" r="71.06"/>
    <circle class="st48" cx="94.69" cy="277.82" r="71.06"/>
    <circle class="st63" cx="93.93" cy="279.04" r="71.06"/>
    <circle class="st212" cx="93.17" cy="280.25" r="71.06"/>
    <circle class="st212" cx="92.41" cy="281.47" r="71.06"/>
    <circle class="st212" cx="91.64" cy="282.69" r="71.06"/>
    <circle class="st226" cx="90.88" cy="283.9" r="71.06"/>
    <circle class="st138" cx="90.12" cy="285.12" r="71.06"/>
    <circle class="st138" cx="89.36" cy="286.33" r="71.06"/>
    <circle class="st83" cx="88.6" cy="287.55" r="71.06"/>
    <circle class="st83" cx="87.83" cy="288.77" r="71.06"/>
    <circle class="st55" cx="87.07" cy="289.98" r="71.06"/>
    <circle class="st62" cx="86.31" cy="291.2" r="71.06"/>
    <circle class="st62" cx="85.55" cy="292.42" r="71.06"/>
    <circle class="st62" cx="84.78" cy="293.63" r="71.06"/>
    <circle class="st203" cx="84.02" cy="294.85" r="71.06"/>
    <circle class="st172" cx="83.26" cy="296.06" r="71.06"/>
    <circle class="st35" cx="82.5" cy="297.28" r="71.06"/>
    <circle class="st35" cx="81.73" cy="298.5" r="71.06"/>
    <circle class="st10" cx="80.97" cy="299.71" r="71.06"/>
    <circle class="st10" cx="80.21" cy="300.93" r="71.06"/>
    <circle class="st163" cx="79.45" cy="302.15" r="71.06"/>
    <circle class="st49" cx="78.68" cy="303.36" r="71.06"/>
    <circle class="st49" cx="77.92" cy="304.58" r="71.06"/>
    <circle class="st49" cx="77.16" cy="305.79" r="71.06"/>
    <circle class="st201" cx="76.4" cy="307.01" r="71.06"/>
    <circle class="st100" cx="75.64" cy="308.23" r="71.06"/>
    <circle class="st100" cx="74.87" cy="309.44" r="71.06"/>
    <circle class="st111" cx="74.11" cy="310.66" r="71.06"/>
    <circle class="st111" cx="73.35" cy="311.88" r="71.06"/>
    <circle class="st205" cx="72.59" cy="313.09" r="71.06"/>
    <circle class="st230" cx="71.82" cy="314.31" r="71.06"/>
    <circle class="st230" cx="71.06" cy="315.52" r="71.06"/>
  </g>
</svg>
